<svg xmlns="http://www.w3.org/2000/svg" xmlns:xlink="http://www.w3.org/1999/xlink" width="1024" zoomAndPan="magnify" viewBox="0 0 768 767.999994" height="1024" preserveAspectRatio="xMidYMid meet" version="1.0"><rect x="-76.8" width="921.6" fill="#ffffff" y="-76.799999" height="921.599993" fill-opacity="1"/><rect x="-76.8" width="921.6" fill="#fffefe" y="-76.799999" height="921.599993" fill-opacity="1"/><path fill="#000000" d="M 384.390625 410.085938 C 270.074219 410.085938 155.753906 397.941406 42.238281 373.566406 L 30.183594 370.980469 C 20.535156 368.925781 14.375 359.460938 16.429688 349.820312 C 18.480469 340.175781 27.949219 334.015625 37.59375 336.070312 L 49.652344 338.660156 C 271.679688 386.246094 496.925781 386.246094 718.953125 338.660156 L 731.011719 336.070312 C 740.65625 334.015625 750.121094 340.175781 752.175781 349.820312 C 754.230469 359.460938 748.070312 368.925781 738.421875 370.980469 L 726.367188 373.566406 C 613.027344 397.851562 498.621094 410.085938 384.390625 410.085938 Z M 384.390625 410.085938 " fill-opacity="1" fill-rule="nonzero"/><path fill="#000000" d="M 384.390625 690.164062 C 296.507812 690.164062 208.625 662.039062 135.300781 605.792969 C 60.636719 548.5625 16.070312 458.296875 16.070312 364.195312 L 16.070312 353.480469 C 16.070312 343.660156 24.109375 335.625 33.933594 335.625 C 43.757812 335.625 51.796875 343.660156 51.796875 353.480469 L 51.796875 364.195312 C 51.796875 447.226562 91.09375 526.867188 157.003906 577.402344 C 290.882812 680.074219 477.902344 680.074219 611.691406 577.402344 C 677.601562 526.867188 716.898438 447.226562 716.898438 364.195312 L 716.898438 353.480469 C 716.898438 343.660156 724.9375 335.625 734.761719 335.625 C 744.585938 335.625 752.625 343.660156 752.625 353.480469 L 752.625 364.195312 C 752.625 458.207031 708.058594 548.5625 633.480469 605.703125 C 560.15625 662.039062 472.273438 690.164062 384.390625 690.164062 Z M 384.390625 690.164062 " fill-opacity="1" fill-rule="nonzero"/><path fill="#000000" d="M 272.039062 171.433594 L 184.421875 171.433594 C 174.597656 171.433594 166.5625 163.398438 166.5625 153.574219 C 166.5625 143.753906 174.597656 135.71875 184.421875 135.71875 L 272.039062 135.71875 C 281.863281 135.71875 289.898438 143.753906 289.898438 153.574219 C 289.898438 163.398438 281.953125 171.433594 272.039062 171.433594 Z M 272.039062 171.433594 " fill-opacity="1" fill-rule="nonzero"/><path fill="#000000" d="M 262.929688 167.324219 L 195.765625 111.078125 C 188.175781 104.738281 187.191406 93.488281 193.53125 85.898438 C 199.875 78.308594 211.128906 77.328125 218.71875 83.667969 L 285.882812 139.914062 C 293.472656 146.253906 294.453125 157.503906 288.113281 165.09375 C 281.773438 172.59375 270.519531 173.664062 262.929688 167.324219 Z M 262.929688 167.324219 " fill-opacity="1" fill-rule="nonzero"/><path fill="#000000" d="M 488.082031 171.433594 L 575.695312 171.433594 C 585.519531 171.433594 593.558594 163.398438 593.558594 153.574219 C 593.558594 143.753906 585.519531 135.71875 575.695312 135.71875 L 488.082031 135.71875 C 478.257812 135.71875 470.21875 143.753906 470.21875 153.574219 C 470.21875 163.398438 478.167969 171.433594 488.082031 171.433594 Z M 488.082031 171.433594 " fill-opacity="1" fill-rule="nonzero"/><path fill="#000000" d="M 497.191406 167.324219 L 564.355469 111.078125 C 571.945312 104.738281 572.929688 93.488281 566.585938 85.898438 C 560.246094 78.308594 548.992188 77.328125 541.402344 83.667969 L 474.238281 139.914062 C 466.648438 146.253906 465.664062 157.503906 472.007812 165.09375 C 478.347656 172.59375 489.691406 173.664062 497.191406 167.324219 Z M 497.191406 167.324219 " fill-opacity="1" fill-rule="nonzero"/></svg>